<svg width="900" height="620" viewBox="0 0 900 620" fill="none" xmlns="http://www.w3.org/2000/svg">
  <defs>
    <linearGradient id="bgPanel" x1="68" y1="70" x2="826" y2="556" gradientUnits="userSpaceOnUse">
      <stop stop-color="#182536"/>
      <stop offset="1" stop-color="#101723"/>
    </linearGradient>
    <linearGradient id="tealBar" x1="0" y1="0" x2="1" y2="1">
      <stop stop-color="#72E2D1"/>
      <stop offset="1" stop-color="#2CC7B8"/>
    </linearGradient>
    <linearGradient id="goldBar" x1="0" y1="0" x2="1" y2="1">
      <stop stop-color="#F7D48A"/>
      <stop offset="1" stop-color="#E7A94A"/>
    </linearGradient>
  </defs>

  <rect width="900" height="620" rx="34" fill="#0F1724"/>
  <rect x="34" y="34" width="832" height="552" rx="28" fill="url(#bgPanel)" stroke="#2A3A53" stroke-width="2.5"/>

  <text x="74" y="92" font-family="Arial, sans-serif" font-size="34" font-weight="700" fill="#F6F2E9">Leadership Readiness for AI/ML Adoption</text>
  <text x="74" y="122" font-family="Arial, sans-serif" font-size="15" font-weight="700" letter-spacing="3" fill="#72E2D1">ARTIFACT 1 LEARNING SUMMARY</text>

  <g transform="translate(74 156)" font-family="Arial, sans-serif">
    <rect width="752" height="96" rx="24" fill="#111A28" stroke="#283A55" stroke-width="2"/>
    <text x="28" y="38" font-size="20" font-weight="700" fill="#F6F2E9">Core lesson</text>
    <text x="28" y="64" font-size="15" fill="#D7DEE8">Successful AI adoption depends on communication, planning, strategic alignment,</text>
    <text x="28" y="84" font-size="15" fill="#D7DEE8">training support, and continuous professional growth, not technical skill alone.</text>
  </g>

  <g transform="translate(74 278)" font-family="Arial, sans-serif">
    <rect width="356" height="248" rx="24" fill="#111A28" stroke="#283A55" stroke-width="2"/>
    <text x="26" y="42" font-size="21" font-weight="700" fill="#F6F2E9">Strength areas</text>

    <g transform="translate(26 70)">
      <text x="0" y="14" font-size="14" fill="#D7DEE8">Communication</text>
      <rect x="0" y="28" width="292" height="14" rx="7" fill="#203145"/>
      <rect x="0" y="28" width="250" height="14" rx="7" fill="url(#tealBar)"/>
    </g>
    <g transform="translate(26 118)">
      <text x="0" y="14" font-size="14" fill="#D7DEE8">Strategic alignment</text>
      <rect x="0" y="28" width="292" height="14" rx="7" fill="#203145"/>
      <rect x="0" y="28" width="230" height="14" rx="7" fill="url(#tealBar)"/>
    </g>
    <g transform="translate(26 166)">
      <text x="0" y="14" font-size="14" fill="#D7DEE8">Continuous learning</text>
      <rect x="0" y="28" width="292" height="14" rx="7" fill="#203145"/>
      <rect x="0" y="28" width="242" height="14" rx="7" fill="url(#tealBar)"/>
    </g>

    <g transform="translate(26 214)">
      <circle cx="9" cy="9" r="9" fill="#72E2D1" fill-opacity="0.14"/>
      <path d="M4 9L8 13L15 5" stroke="#72E2D1" stroke-width="2.4" stroke-linecap="round" stroke-linejoin="round"/>
      <text x="28" y="14" font-size="14" fill="#D7DEE8">People-centered leadership matters as much as technical knowledge</text>
    </g>
  </g>

  <g transform="translate(470 278)" font-family="Arial, sans-serif">
    <rect width="356" height="248" rx="24" fill="#111A28" stroke="#283A55" stroke-width="2"/>
    <text x="26" y="42" font-size="21" font-weight="700" fill="#F6F2E9">Growth areas</text>

    <g transform="translate(26 70)">
      <text x="0" y="14" font-size="14" fill="#D7DEE8">Training design</text>
      <rect x="0" y="28" width="292" height="14" rx="7" fill="#203145"/>
      <rect x="0" y="28" width="146" height="14" rx="7" fill="url(#goldBar)"/>
    </g>
    <g transform="translate(26 118)">
      <text x="0" y="14" font-size="14" fill="#D7DEE8">Ownership planning</text>
      <rect x="0" y="28" width="292" height="14" rx="7" fill="#203145"/>
      <rect x="0" y="28" width="162" height="14" rx="7" fill="url(#goldBar)"/>
    </g>
    <g transform="translate(26 166)">
      <text x="0" y="14" font-size="14" fill="#D7DEE8">Change-management support</text>
      <rect x="0" y="28" width="292" height="14" rx="7" fill="#203145"/>
      <rect x="0" y="28" width="154" height="14" rx="7" fill="url(#goldBar)"/>
    </g>

    <g transform="translate(26 214)">
      <circle cx="9" cy="9" r="9" fill="#F5C66B" fill-opacity="0.16"/>
      <path d="M9 4V10.5" stroke="#F5C66B" stroke-width="2.4" stroke-linecap="round"/>
      <circle cx="9" cy="14" r="1.6" fill="#F5C66B"/>
      <text x="28" y="14" font-size="14" fill="#D7DEE8">Adoption succeeds when support systems are built before rollout</text>
    </g>
  </g>

  <g transform="translate(74 548)" font-family="Arial, sans-serif">
    <rect width="752" height="34" rx="17" fill="#111A28" stroke="#283A55" stroke-width="2"/>
    <circle cx="18" cy="17" r="6" fill="#72E2D1"/>
    <circle cx="42" cy="17" r="6" fill="#F5C66B"/>
    <text x="60" y="22" font-size="13" fill="#D7DEE8">This artifact highlights readiness, strategic thinking, stakeholder communication, and clear growth areas for future development.</text>
  </g>
</svg>
