<svg width="1400" height="860" viewBox="0 0 1400 860" fill="none" xmlns="http://www.w3.org/2000/svg">
  <defs>
    <linearGradient id="flowBg" x1="80" y1="40" x2="1320" y2="820" gradientUnits="userSpaceOnUse">
      <stop stop-color="#F8FBFF"/>
      <stop offset="1" stop-color="#E8F0F7"/>
    </linearGradient>
  </defs>
  <rect width="1400" height="860" rx="36" fill="url(#flowBg)"/>
  <text x="700" y="92" fill="#17314A" font-family="Arial, sans-serif" font-size="34" font-weight="700" text-anchor="middle">AI/ML ROLLOUT FLOW</text>
  <text x="700" y="126" fill="#53718A" font-family="Arial, sans-serif" font-size="18" text-anchor="middle">From strategy to implementation and ongoing support</text>
  <path d="M160 430H1240" stroke="#7EB8A9" stroke-width="18" stroke-linecap="round"/>
  <g fill="#1F4868" stroke="#8EC2B2" stroke-width="4">
    <rect x="120" y="316" width="180" height="224" rx="28"/>
    <rect x="350" y="250" width="180" height="292" rx="28"/>
    <rect x="580" y="184" width="180" height="360" rx="28"/>
    <rect x="810" y="250" width="180" height="292" rx="28"/>
    <rect x="1040" y="316" width="180" height="224" rx="28"/>
  </g>
  <g fill="#F7FBFF" font-family="Arial, sans-serif" text-anchor="middle">
    <text x="210" y="374" font-size="24" font-weight="700">STRATEGY</text>
    <text x="440" y="308" font-size="24" font-weight="700">READINESS</text>
    <text x="670" y="244" font-size="24" font-weight="700">GOVERNANCE</text>
    <text x="900" y="308" font-size="24" font-weight="700">TRAINING</text>
    <text x="1130" y="374" font-size="24" font-weight="700">IMPLEMENT</text>
  </g>
  <g fill="#D6E5F0" font-family="Arial, sans-serif" font-size="18" text-anchor="middle">
    <text x="210" y="416">Define business</text>
    <text x="210" y="442">goal and scope</text>
    <text x="440" y="362">Assess people,</text>
    <text x="440" y="388">process, and risk</text>
    <text x="670" y="296">Assign ownership</text>
    <text x="670" y="322">and decision rules</text>
    <text x="900" y="362">Build capability</text>
    <text x="900" y="388">and support teams</text>
    <text x="1130" y="416">Launch carefully</text>
    <text x="1130" y="442">and monitor impact</text>
  </g>
  <g fill="#FFFFFF">
    <circle cx="210" cy="542" r="22"/>
    <circle cx="440" cy="542" r="22"/>
    <circle cx="670" cy="542" r="22"/>
    <circle cx="900" cy="542" r="22"/>
    <circle cx="1130" cy="542" r="22"/>
  </g>
  <g fill="#D2A651">
    <circle cx="210" cy="542" r="10"/>
    <circle cx="440" cy="542" r="10"/>
    <circle cx="670" cy="542" r="10"/>
    <circle cx="900" cy="542" r="10"/>
    <circle cx="1130" cy="542" r="10"/>
  </g>
  <g fill="#4F6B80" font-family="Arial, sans-serif" font-size="18" text-anchor="middle">
    <text x="700" y="716">A successful rollout is a leadership process, not only a technical deployment.</text>
    <text x="700" y="742">Communication, governance, and training keep implementation sustainable.</text>
  </g>
</svg>
