<svg width="1400" height="860" viewBox="0 0 1400 860" fill="none" xmlns="http://www.w3.org/2000/svg">
  <rect width="1400" height="860" rx="36" fill="#F2F7FB"/>
  <rect x="70" y="84" width="1260" height="710" rx="32" fill="#FDFEFF" stroke="#C7D8E5" stroke-width="3"/>
  <text x="700" y="146" fill="#17314A" font-family="Arial, sans-serif" font-size="32" font-weight="700" text-anchor="middle">MODEL SUITABILITY BY DATA COMPLEXITY</text>
  <g stroke="#D8E4EE" stroke-width="2">
    <path d="M186 212V710"/>
    <path d="M186 710H1236"/>
    <path d="M186 612H1236"/>
    <path d="M186 514H1236"/>
    <path d="M186 416H1236"/>
    <path d="M186 318H1236"/>
  </g>
  <path d="M220 650C372 620 470 546 612 430C734 334 828 280 980 248C1076 228 1144 230 1200 244" stroke="#2A6880" stroke-width="14" stroke-linecap="round"/>
  <path d="M220 640C332 654 420 664 520 664C640 664 728 630 806 568C882 510 934 438 1022 356C1094 290 1140 252 1200 224" stroke="#D0A454" stroke-width="14" stroke-linecap="round"/>
  <g fill="#244C6D" font-family="Arial, sans-serif" font-size="18" font-weight="700">
    <text x="244" y="744">LOW</text>
    <text x="676" y="744">MEDIUM</text>
    <text x="1140" y="744">HIGH</text>
    <text x="100" y="236" transform="rotate(-90 100 236)">FIT / PERFORMANCE</text>
  </g>
  <g fill="#516B80" font-family="Arial, sans-serif" font-size="18">
    <text x="284" y="254">Deep Learning becomes more useful</text>
    <text x="284" y="280">when input patterns are less structured.</text>
    <text x="834" y="592">Machine Learning stays strong for</text>
    <text x="834" y="618">tabular business data and explainability.</text>
  </g>
  <rect x="918" y="646" width="250" height="92" rx="22" fill="#FFFFFF" stroke="#C7D8E5" stroke-width="3"/>
  <circle cx="956" cy="678" r="12" fill="#2A6880"/>
  <text x="986" y="686" fill="#244C6D" font-family="Arial, sans-serif" font-size="18" font-weight="700">Deep Learning</text>
  <circle cx="956" cy="714" r="12" fill="#D0A454"/>
  <text x="986" y="722" fill="#244C6D" font-family="Arial, sans-serif" font-size="18" font-weight="700">Machine Learning</text>
</svg>
