<svg width="1400" height="860" viewBox="0 0 1400 860" fill="none" xmlns="http://www.w3.org/2000/svg">
  <rect width="1400" height="860" rx="36" fill="#F1F6FB"/>
  <rect x="72" y="84" width="1256" height="694" rx="30" fill="#FBFDFF" stroke="#C7D8E5" stroke-width="3"/>
  <text x="700" y="146" fill="#17314A" font-family="Arial, sans-serif" font-size="34" font-weight="700" text-anchor="middle">NEURAL NETWORK TRAINING CYCLE</text>
  <g stroke="#D7E3ED" stroke-width="2">
    <path d="M196 686H1222"/>
    <path d="M196 588H1222"/>
    <path d="M196 490H1222"/>
    <path d="M196 392H1222"/>
    <path d="M196 294H1222"/>
    <path d="M196 196H1222"/>
  </g>
  <path d="M236 626C330 608 396 564 470 512C550 456 618 382 700 346C772 314 874 314 970 264C1048 224 1122 198 1180 186" stroke="#2C6980" stroke-width="16" stroke-linecap="round"/>
  <circle cx="236" cy="626" r="14" fill="#2C6980"/>
  <circle cx="470" cy="512" r="14" fill="#2C6980"/>
  <circle cx="700" cy="346" r="14" fill="#2C6980"/>
  <circle cx="970" cy="264" r="14" fill="#2C6980"/>
  <circle cx="1180" cy="186" r="14" fill="#2C6980"/>
  <rect x="188" y="700" width="1040" height="42" rx="20" fill="#E6EFF6"/>
  <g fill="#244C6D" font-family="Arial, sans-serif" font-size="18" font-weight="700" text-anchor="middle">
    <text x="236" y="774">EARLY</text>
    <text x="470" y="774">LEARNING</text>
    <text x="700" y="774">TUNING</text>
    <text x="970" y="774">OPTIMIZING</text>
    <text x="1180" y="774">STABLE</text>
  </g>
  <g fill="#556E82" font-family="Arial, sans-serif" font-size="18">
    <text x="222" y="214" transform="rotate(-90 222 214)">MODEL ACCURACY</text>
    <text x="892" y="466">As training continues, weights adjust to reduce error</text>
    <text x="892" y="492">and improve prediction quality across validation checks.</text>
  </g>
</svg>
