<svg width="1400" height="900" viewBox="0 0 1400 900" fill="none" xmlns="http://www.w3.org/2000/svg">
  <rect width="1400" height="900" rx="28" fill="#0C1220"/>
  <rect x="36" y="36" width="1328" height="828" rx="24" fill="#10192B" stroke="#21314B" stroke-width="2"/>
  <g opacity=".25" stroke="#1C2B43" stroke-width="1">
    <path d="M80 130H1320"/><path d="M80 210H1320"/><path d="M80 290H1320"/><path d="M80 370H1320"/><path d="M80 450H1320"/><path d="M80 530H1320"/><path d="M80 610H1320"/><path d="M80 690H1320"/><path d="M80 770H1320"/>
    <path d="M140 90V810"/><path d="M280 90V810"/><path d="M420 90V810"/><path d="M560 90V810"/><path d="M700 90V810"/><path d="M840 90V810"/><path d="M980 90V810"/><path d="M1120 90V810"/><path d="M1260 90V810"/>
  </g>
  <text x="86" y="96" font-family="Arial, sans-serif" font-size="36" font-weight="700" fill="#F5F7FB">Neural Signal Map</text>
  <text x="86" y="132" font-family="Arial, sans-serif" font-size="15" letter-spacing="3" fill="#74D7C8">NODE ACTIVATION · LAYER FLOW · SIGNAL PROPAGATION</text>

  <g stroke="#516A8D" stroke-width="3" opacity=".9">
    <line x1="255" y1="230" x2="512" y2="180"/>
    <line x1="255" y1="230" x2="512" y2="308"/>
    <line x1="255" y1="360" x2="512" y2="180"/>
    <line x1="255" y1="360" x2="512" y2="308"/>
    <line x1="255" y1="360" x2="512" y2="436"/>
    <line x1="255" y1="490" x2="512" y2="308"/>
    <line x1="255" y1="490" x2="512" y2="436"/>
    <line x1="255" y1="490" x2="512" y2="564"/>
    <line x1="255" y1="620" x2="512" y2="436"/>
    <line x1="255" y1="620" x2="512" y2="564"/>

    <line x1="558" y1="180" x2="842" y2="230"/>
    <line x1="558" y1="180" x2="842" y2="360"/>
    <line x1="558" y1="308" x2="842" y2="230"/>
    <line x1="558" y1="308" x2="842" y2="360"/>
    <line x1="558" y1="308" x2="842" y2="490"/>
    <line x1="558" y1="436" x2="842" y2="230"/>
    <line x1="558" y1="436" x2="842" y2="360"/>
    <line x1="558" y1="436" x2="842" y2="490"/>
    <line x1="558" y1="436" x2="842" y2="620"/>
    <line x1="558" y1="564" x2="842" y2="360"/>
    <line x1="558" y1="564" x2="842" y2="490"/>
    <line x1="558" y1="564" x2="842" y2="620"/>

    <line x1="888" y1="230" x2="1160" y2="295"/>
    <line x1="888" y1="360" x2="1160" y2="295"/>
    <line x1="888" y1="360" x2="1160" y2="555"/>
    <line x1="888" y1="490" x2="1160" y2="295"/>
    <line x1="888" y1="490" x2="1160" y2="555"/>
    <line x1="888" y1="620" x2="1160" y2="555"/>
  </g>

  <g>
    <circle cx="220" cy="230" r="34" fill="#1B3050"/><circle cx="220" cy="360" r="34" fill="#1B3050"/><circle cx="220" cy="490" r="34" fill="#1B3050"/><circle cx="220" cy="620" r="34" fill="#1B3050"/>
    <circle cx="535" cy="180" r="28" fill="#6F5AF4"/><circle cx="535" cy="308" r="28" fill="#6F5AF4"/><circle cx="535" cy="436" r="28" fill="#6F5AF4"/><circle cx="535" cy="564" r="28" fill="#6F5AF4"/>
    <circle cx="865" cy="230" r="28" fill="#32A4FF"/><circle cx="865" cy="360" r="28" fill="#32A4FF"/><circle cx="865" cy="490" r="28" fill="#32A4FF"/><circle cx="865" cy="620" r="28" fill="#32A4FF"/>
    <circle cx="1188" cy="295" r="34" fill="#F6A33F"/><circle cx="1188" cy="555" r="34" fill="#F6A33F"/>
  </g>

  <g opacity=".9">
    <circle cx="220" cy="230" r="62" fill="url(#glow1)"/><circle cx="535" cy="308" r="58" fill="url(#glow2)"/><circle cx="865" cy="490" r="58" fill="url(#glow3)"/><circle cx="1188" cy="295" r="64" fill="url(#glow4)"/>
  </g>

  <g font-family="Arial, sans-serif" fill="#AAB6C8">
    <text x="170" y="705" font-size="18">Input layer</text>
    <text x="470" y="705" font-size="18">Hidden layer 1</text>
    <text x="800" y="705" font-size="18">Hidden layer 2</text>
    <text x="1125" y="705" font-size="18">Output layer</text>
  </g>

  <defs>
    <radialGradient id="glow1"><stop stop-color="#8FB8FF" stop-opacity=".38"/><stop offset="1" stop-color="#8FB8FF" stop-opacity="0"/></radialGradient>
    <radialGradient id="glow2"><stop stop-color="#8B72F0" stop-opacity=".38"/><stop offset="1" stop-color="#8B72F0" stop-opacity="0"/></radialGradient>
    <radialGradient id="glow3"><stop stop-color="#32A4FF" stop-opacity=".38"/><stop offset="1" stop-color="#32A4FF" stop-opacity="0"/></radialGradient>
    <radialGradient id="glow4"><stop stop-color="#F6A33F" stop-opacity=".38"/><stop offset="1" stop-color="#F6A33F" stop-opacity="0"/></radialGradient>
  </defs>
</svg>
